<svg width="551" height="551" viewBox="0 0 551 551" fill="none" xmlns="http://www.w3.org/2000/svg">
<path d="M411.198 139.802C411.198 91.4936 385.19 46.4493 343.328 22.2191C322.831 10.3588 299.386 4.09119 275.514 4.09119C251.655 4.09119 228.197 10.3588 207.686 22.2191C184.365 35.7186 165.975 55.6648 154.252 79.041C154.211 79.1098 154.184 79.1787 154.142 79.2476C152.448 82.65 150.919 86.1489 149.514 89.689C148.935 91.1492 148.357 92.6231 147.833 94.1108C146.428 98.0367 145.161 102.018 144.114 106.068C143.508 108.395 142.971 110.737 142.502 113.093C140.739 121.812 139.83 130.752 139.83 139.802H411.225H411.198Z" fill="white"/>
<path d="M139.802 411.198C139.802 459.506 165.81 504.551 207.672 528.781C228.169 540.641 251.614 546.909 275.486 546.909C299.345 546.909 322.803 540.641 343.314 528.781C366.635 515.281 385.025 495.335 396.748 471.959C396.789 471.89 396.816 471.821 396.858 471.752C398.552 468.35 400.081 464.851 401.486 461.311C402.065 459.851 402.643 458.377 403.167 456.889C404.572 452.963 405.839 448.982 406.886 444.933C407.492 442.605 408.029 440.263 408.498 437.907C410.261 429.188 411.17 420.248 411.17 411.198H139.802Z" fill="white"/>
<path d="M411.198 411.198C459.506 411.198 504.551 385.19 528.781 343.328C540.641 322.831 546.909 299.386 546.909 275.514C546.909 251.655 540.641 228.197 528.781 207.686C515.295 184.365 495.335 165.975 471.959 154.239C471.89 154.197 471.821 154.17 471.752 154.128C468.35 152.434 464.851 150.905 461.311 149.5C459.851 148.922 458.377 148.343 456.889 147.82C452.963 146.414 448.982 145.147 444.933 144.1C442.605 143.494 440.263 142.957 437.907 142.489C429.188 140.725 420.248 139.816 411.198 139.816V411.211V411.198Z" fill="white"/>
<path d="M139.802 139.802C91.4936 139.802 46.4493 165.81 22.2191 207.672C10.3588 228.169 4.09119 251.614 4.09119 275.486C4.09119 299.345 10.3588 322.803 22.2191 343.314C35.7048 366.635 55.6648 385.025 79.041 396.761C79.1098 396.803 79.1787 396.83 79.2476 396.872C82.65 398.566 86.1489 400.095 89.689 401.5C91.1492 402.078 92.6231 402.657 94.1108 403.18C98.0367 404.586 102.018 405.853 106.068 406.9C108.395 407.506 110.737 408.043 113.093 408.511C121.812 410.275 130.752 411.184 139.802 411.184V139.802Z" fill="white"/>
</svg>
